<?xml version="1.0" encoding="UTF-8"?>
<svg viewBox="0 0 1000 1000" xmlns="http://www.w3.org/2000/svg">
  <g transform="translate(500 500) scale(0.802734375) translate(-500 -500)"><g transform="translate(500 500) scale(1.15) translate(-500 -500)"><path d="M 918.90 500.00 A 418.90 418.90 0 1 0 134.57 704.78 C 144.95 723.31 146.69 741.17 141.19 761.69 L 120.91 837.37 Q 105.64 894.36 162.63 879.09 L 238.31 858.81 C 258.83 853.31 276.69 855.05 295.22 865.43 A 418.90 418.90 0 0 0 918.90 500.00 Z M 272.18 500.36 C 322.37 409.20 375.03 329.03 442.76 350.43 C 527.03 376.31 511.13 472.41 591.16 482.17 C 641.09 488.68 692.73 451.67 740.37 409.47 Q 828.60 329.50 727.82 499.64 C 677.63 590.80 624.97 670.97 557.24 649.58 C 472.97 623.69 488.87 527.59 408.84 517.83 C 358.91 511.32 307.27 548.33 259.63 590.53 Q 171.40 670.50 272.18 500.36 Z" fill="#FF6500" fill-rule="evenodd"/></g></g>
</svg>
