<?xml version="1.0" encoding="UTF-8" standalone="no"?>
<svg
   viewBox="0 0 1000 999.99072"
   fill="none"
   version="1.1"
   id="svg2"
   xmlns="http://www.w3.org/2000/svg"
   xmlns:svg="http://www.w3.org/2000/svg">
  <g
     clip-path="none"
     id="g2"
     transform="translate(-0.940002,-0.91)">
    <!-- Original Messenger chat bubble shape - ORANGE for Beta -->
    <path
       d="m 1000.94,485.90553 c 0,278.68297 -218.33611,484.99554 -500.00001,484.99554 -50.58364,0 -99.1207,-6.66838 -144.74082,-19.2103 -8.86599,-2.45104 -18.28875,-1.75604 -26.70037,1.94548 l -99.24741,43.81288 c -25.95418,11.46807 -55.25663,-6.99732 -56.12697,-35.36414 l -2.72879,-88.95303 C 171.05517,862.18098 166.12877,851.925 157.95777,844.63842 60.667611,757.62959 0.940002,631.68181 0.940002,485.90553 0.940002,207.23536 219.27609,0.91 500.93999,0.91 782.60389,0.91 1000.94,207.23536 1000.94,485.90553 Z"
       fill="#ff6b00"
       id="path1" />
    <!-- Symmetric constant-width thunderbolt mark -->
    <path
       d="M 70.00 470.00 L 270.99 189.55 L 500.00 470.00 L 729.01 189.55 L 930.00 470.00 L 788.99 -49.55 L 500.00 267.62 L 211.01 -49.55 Z"
       fill="#ffffff"
       transform="translate(70.00 284.61) scale(0.86)"
       id="double-zig-bolt" />
  </g>
  <defs
     id="defs2" />
</svg>
