<?xml version="1.0" encoding="UTF-8"?>
<svg viewBox="0 0 1000 1000" fill="none" xmlns="http://www.w3.org/2000/svg">
  <path d="M 918.90 488.00 A 418.90 418.90 0 1 0 134.68 692.98 C 145.07 711.50 145.83 729.05 138.57 749.01 L 101.28 851.46 Q 81.10 906.90 136.54 886.72 L 238.99 849.43 C 258.95 842.17 276.50 842.93 295.02 853.32 A 418.90 418.90 0 0 0 918.90 488.00 Z" fill="#FF6500"/>
  <path d="M 190 610
  C 275 535 340 365 450 390
  C 530 408 515 470 590 475
  C 665 480 750 420 810 390
  C 725 465 660 635 550 610
  C 470 592 485 530 410 525
  C 335 520 250 580 190 610
  Z" fill="#FFFFFF"/>
</svg>
