<?xml version="1.0" encoding="UTF-8" standalone="no"?>
<svg
   viewBox="0 0 1000 999.99072"
   fill="none"
   version="1.1"
   id="svg2"
   xmlns="http://www.w3.org/2000/svg"
   xmlns:svg="http://www.w3.org/2000/svg">
  <g
     clip-path="none"
     id="g2"
     transform="translate(-0.940002,-0.91)">
    <!-- Original Messenger chat bubble shape -->
    <path
       d="m 1000.94,485.90553 c 0,278.68297 -218.33611,484.99554 -500.00001,484.99554 -50.58364,0 -99.1207,-6.66838 -144.74082,-19.2103 -8.86599,-2.45104 -18.28875,-1.75604 -26.70037,1.94548 l -99.24741,43.81288 c -25.95418,11.46807 -55.25663,-6.99732 -56.12697,-35.36414 l -2.72879,-88.95303 C 171.05517,862.18098 166.12877,851.925 157.95777,844.63842 60.667611,757.62959 0.940002,631.68181 0.940002,485.90553 0.940002,207.23536 219.27609,0.91 500.93999,0.91 782.60389,0.91 1000.94,207.23536 1000.94,485.90553 Z"
       fill="#0866ff"
       id="path1" />
    <!-- Symmetric constant-width thunderbolt mark with softened corners -->
    <path
       d="M 83.98 450.49 L 257.01 209.06 Q 270.99 189.55 286.17 208.14 L 484.82 451.41 Q 500.00 470.00 515.18 451.41 L 713.83 208.14 Q 729.01 189.55 742.99 209.06 L 916.02 450.49 Q 930.00 470.00 923.71 446.84 L 795.28 -26.39 Q 788.99 -49.55 772.83 -31.81 L 516.16 249.88 Q 500.00 267.62 483.84 249.88 L 227.17 -31.81 Q 211.01 -49.55 204.72 -26.39 L 76.29 446.84 Q 70.00 470.00 83.98 450.49 Z"
       fill="#ffffff"
       transform="translate(70.00 284.61) scale(0.86)"
       id="double-zig-bolt" />
  </g>
  <defs
     id="defs2" />
</svg>
