<?xml version="1.0" encoding="UTF-8" standalone="no"?>
<svg
   viewBox="0 0 1000 999.99072"
   fill="none"
   version="1.1"
   id="svg2"
   xmlns="http://www.w3.org/2000/svg"
   xmlns:svg="http://www.w3.org/2000/svg">
  <g
     clip-path="none"
     id="g2"
     transform="translate(-0.940002,-0.91)">
    <!-- Distinct chat bubble - rounder with simpler tail -->
    <path
       d="M 500,30 C 780,30 970,220 970,485 C 970,750 780,940 500,940 C 400,940 310,910 235,860 L 100,920 C 70,935 40,905 55,875 L 115,760 C 55,680 30,590 30,485 C 30,220 220,30 500,30 Z"
       fill="#2478FF"
       id="path1" />
    <!-- Network diagram - organic distribution, spread out -->
    <!-- Connection lines to center -->
    <line x1="620" y1="150" x2="500" y2="440" stroke="#ffffff" stroke-width="15" stroke-linecap="round" />
    <line x1="820" y1="450" x2="500" y2="440" stroke="#ffffff" stroke-width="15" stroke-linecap="round" />
    <line x1="700" y1="750" x2="500" y2="440" stroke="#ffffff" stroke-width="15" stroke-linecap="round" />
    <line x1="300" y1="720" x2="500" y2="440" stroke="#ffffff" stroke-width="15" stroke-linecap="round" />
    <line x1="180" y1="400" x2="500" y2="440" stroke="#ffffff" stroke-width="15" stroke-linecap="round" />
    <line x1="340" y1="200" x2="500" y2="440" stroke="#ffffff" stroke-width="15" stroke-linecap="round" />
    <!-- Connection lines between outer nodes -->
    <line x1="620" y1="150" x2="820" y2="450" stroke="#ffffff" stroke-width="12" stroke-linecap="round" />
    <line x1="820" y1="450" x2="700" y2="750" stroke="#ffffff" stroke-width="12" stroke-linecap="round" />
    <line x1="700" y1="750" x2="300" y2="720" stroke="#ffffff" stroke-width="12" stroke-linecap="round" />
    <line x1="300" y1="720" x2="180" y2="400" stroke="#ffffff" stroke-width="12" stroke-linecap="round" />
    <line x1="180" y1="400" x2="340" y2="200" stroke="#ffffff" stroke-width="12" stroke-linecap="round" />
    <line x1="340" y1="200" x2="620" y2="150" stroke="#ffffff" stroke-width="12" stroke-linecap="round" />
    <!-- Nodes (varied sizes for organic feel) -->
    <circle cx="500" cy="440" r="52" fill="#ffffff" />
    <circle cx="620" cy="150" r="44" fill="#ffffff" />
    <circle cx="820" cy="450" r="40" fill="#ffffff" />
    <circle cx="700" cy="750" r="46" fill="#ffffff" />
    <circle cx="300" cy="720" r="42" fill="#ffffff" />
    <circle cx="180" cy="400" r="44" fill="#ffffff" />
    <circle cx="340" cy="200" r="38" fill="#ffffff" />
  </g>
  <defs
     id="defs2" />
</svg>
