<?xml version="1.0" encoding="UTF-8" standalone="no"?>
<svg
   viewBox="0 0 1000 999.99072"
   fill="none"
   version="1.1"
   id="svg2"
   xmlns="http://www.w3.org/2000/svg"
   xmlns:svg="http://www.w3.org/2000/svg">
  <g
     clip-path="none"
     id="g2"
     transform="translate(-0.940002,-0.91)">
    <!-- Original Messenger chat bubble shape -->
    <path
       d="m 1000.94,485.90553 c 0,278.68297 -218.33611,484.99554 -500.00001,484.99554 -50.58364,0 -99.1207,-6.66838 -144.74082,-19.2103 -8.86599,-2.45104 -18.28875,-1.75604 -26.70037,1.94548 l -99.24741,43.81288 c -25.95418,11.46807 -55.25663,-6.99732 -56.12697,-35.36414 l -2.72879,-88.95303 C 171.05517,862.18098 166.12877,851.925 157.95777,844.63842 60.667611,757.62959 0.940002,631.68181 0.940002,485.90553 0.940002,207.23536 219.27609,0.91 500.93999,0.91 782.60389,0.91 1000.94,207.23536 1000.94,485.90553 Z"
       fill="#0866ff"
       id="path1" />
    <!-- Symmetric narrow thunderbolt mark with extra-rounded lower corners -->
    <path
       d="M 212.00 334.10 L 269.77 239.50 Q 300.00 190.00 333.71 237.20 L 463.96 419.55 Q 500.00 470.00 536.04 419.55 L 666.29 237.20 Q 700.00 190.00 730.23 239.50 L 788.00 334.10 Q 860.00 452.00 833.01 316.52 L 771.33 6.88 Q 760.00 -50.00 723.29 -5.10 L 539.24 220.00 Q 500.00 268.00 460.76 220.00 L 276.71 -5.10 Q 240.00 -50.00 228.67 6.88 L 166.99 316.52 Q 140.00 452.00 212.00 334.10 Z"
       fill="#ffffff"
       transform="translate(70.00 284.61) scale(0.86)"
       id="double-zig-bolt" />
  </g>
  <defs
     id="defs2" />
</svg>
